<?xml version="1.0" encoding="utf-8"?><!--Generator: Adobe Illustrator 28.2.0, SVG Export Plug-In . SVG Version: 6.00 Build 0)--><svg version="1.1" id="Layer_1" xmlns="http://www.w3.org/2000/svg" xmlns:xlink="http://www.w3.org/1999/xlink" x="0px" y="0px" viewBox="0 0 1038 180" style="enable-background:new 0 0 1038 180;" xml:space="preserve"><style type="text/css">.st0{clip-path:url(#SVGID_00000128463059693329944050000005657665021694052504_);}
	.st1{fill:#0052CC;}</style><g><defs><rect id="SVGID_1_" width="1038" height="144.9"/></defs><clipPath id="SVGID_00000029030069639508507940000007733041011024302238_"><use xlink:href="#SVGID_1_" style="overflow:visible;"/></clipPath><g style="clip-path:url(#SVGID_00000029030069639508507940000007733041011024302238_);"><path class="st1" d="M1030.5,132.3c-80.2-26.6-137.2-42.8-200.2-56.9c-72.8-16.3-124.5-23-185.5-24c-65.8-1-117.4,4.3-197.5,20.6
			c-32.3,6.5-69.8,14.9-149.4,33.5c-79.1,18.4-128,28.2-158.2,31.5c-53.8,6-108.4,1.2-159.6-13.9l-9.5-2.8L-29.6,5.6l-0.2-114.7
			h1098.3V18c0,69.9-0.1,127-0.2,126.9C1068.2,144.8,1051.2,139.1,1030.5,132.3z"/></g></g></svg>