<?xml version="1.0" encoding="utf-8"?><!--Generator: Adobe Illustrator 28.2.0, SVG Export Plug-In . SVG Version: 6.00 Build 0)--><svg version="1.1" id="Layer_1" xmlns="http://www.w3.org/2000/svg" xmlns:xlink="http://www.w3.org/1999/xlink" x="0px" y="0px" viewBox="0 0 1038 180" style="enable-background:new 0 0 1038 180;" xml:space="preserve"><style type="text/css">.st0{clip-path:url(#SVGID_00000056420570593363650500000017201499679799793550_);}
	.st1{fill:#FFFFFF;}
	.st2{fill:#E6EEFA;}
	.st3{clip-path:url(#SVGID_00000028321274527184044890000003879572738475152294_);}</style><g><g><defs><rect id="SVGID_1_" width="1038" height="187"/></defs><clipPath id="SVGID_00000154403937385912562640000012951209992827788935_"><use xlink:href="#SVGID_1_" style="overflow:visible;"/></clipPath><g style="clip-path:url(#SVGID_00000154403937385912562640000012951209992827788935_);"><path class="st1" d="M0,0h1038v187H0V0z"/><path class="st2" d="M0,0h1038v187H0V0z"/></g></g></g><g><g><defs><rect id="SVGID_00000178896828076644342650000017322455961669064634_" width="1038" height="144.9"/></defs><clipPath id="SVGID_00000075882568688561109150000001077001595294063257_"><use xlink:href="#SVGID_00000178896828076644342650000017322455961669064634_" style="overflow:visible;"/></clipPath><g style="clip-path:url(#SVGID_00000075882568688561109150000001077001595294063257_);"><path class="st1" d="M-23.7,132.2c80.2-26.6,137.3-42.8,200.3-56.9c72.8-16.3,124.6-23,185.5-24c65.8-1,117.5,4.3,197.6,20.6
				c32.3,6.5,69.8,14.9,149.5,33.5c79.1,18.4,128,28.2,158.3,31.5c53.8,6,108.5,1.2,159.7-13.9l9.5-2.8l0.2-114.6l0.2-114.7H-61.7
				v127c0,69.9,0.1,127,0.2,126.9C-61.4,144.8-44.4,139.1-23.7,132.2z"/></g></g></g></svg>