<?xml version="1.0" encoding="utf-8"?><!--Generator: Adobe Illustrator 28.2.0, SVG Export Plug-In . SVG Version: 6.00 Build 0)--><svg version="1.1" id="Layer_1" xmlns="http://www.w3.org/2000/svg" xmlns:xlink="http://www.w3.org/1999/xlink" x="0px" y="0px" viewBox="0 0 1038 180" style="enable-background:new 0 0 1038 180;" xml:space="preserve"><style type="text/css">.st0{clip-path:url(#SVGID_00000082346325808705970530000011436144196143932086_);}
	.st1{fill:#FFFFFF;}
	.st2{clip-path:url(#SVGID_00000004539489575530408010000007587466951832853155_);}
	.st3{fill:#ECECEC;}
	.st4{clip-path:url(#SVGID_00000122719222050344230850000002534115586020713368_);}</style><g><g><defs><rect id="SVGID_1_" x="3.5" width="1030.4" height="178.7"/></defs><clipPath id="SVGID_00000016759102977431470080000000971756869856305308_"><use xlink:href="#SVGID_1_" style="overflow:visible;"/></clipPath><g style="clip-path:url(#SVGID_00000016759102977431470080000000971756869856305308_);"><path class="st1" d="M3.5,0h1030.4v178.7H3.5V0z"/><path class="st1" d="M7.6,6H1038v178.7H7.6V6z"/></g></g></g><g><defs><rect id="SVGID_00000112611716994793734310000002205293624095564954_" width="866.7" height="137.6"/></defs><clipPath id="SVGID_00000075841745284907315510000015592227496539609474_"><use xlink:href="#SVGID_00000112611716994793734310000002205293624095564954_" style="overflow:visible;"/></clipPath><g style="clip-path:url(#SVGID_00000075841745284907315510000015592227496539609474_);"><path class="st3" d="M-190.2,125C-110.2,98.4-53.4,82.2,9.3,68.1c72.6-16.3,124.1-23,184.8-24c65.6-1,117,4.3,196.8,20.6
			c32.1,6.5,69.5,14.9,148.9,33.5c78.8,18.4,127.5,28.2,157.7,31.5c53.6,6,108,1.2,159-13.9l9.5-2.8l0.2-114.6l0.2-114.7H-228v127
			c0,69.9,0.1,127,0.2,126.9C-227.7,137.6-210.8,131.9-190.2,125z"/></g></g><g><g><defs><rect id="SVGID_00000055677707713915036650000001988580805324877996_" x="850.7" width="187.3" height="117.7"/></defs><clipPath id="SVGID_00000031171019165012896980000017770441609382768777_"><use xlink:href="#SVGID_00000055677707713915036650000001988580805324877996_" style="overflow:visible;"/></clipPath><g style="clip-path:url(#SVGID_00000031171019165012896980000017770441609382768777_);"><path class="st3" d="M890.6,105c81.4-26.6,139.2-42.8,203.1-56.9c73.8-16.3,126.4-23,188.2-24c66.8-1,119.1,4.3,200.4,20.6
				c32.7,6.5,70.7,14.9,151.6,33.5c80.3,18.4,129.8,28.2,160.6,31.5c54.6,6,110,1.2,161.9-13.9l9.7-2.8l0.2-114.6l0.2-114.7H851.9
				v127c0,69.9,0.1,127,0.2,126.9C852.3,117.6,869.5,111.9,890.6,105z"/></g></g></g></svg>